<svg version="1.1" xmlns="http://www.w3.org/2000/svg" viewBox="0 0 920 660" width="1840" height="1320">
  <!-- svg-source:excalidraw -->
  
  <defs>
    <style>
      @font-face {
        font-family: "Virgil";
        src: url("undefined/excalidraw-assets/Virgil.woff2");
      }
      @font-face {
        font-family: "Cascadia";
        src: url("undefined/excalidraw-assets/Cascadia.woff2");
      }
      @font-face {
        font-family: "GoogleSans_Regular";
        src: url("undefined/excalidraw-assets/GoogleSans_Regular.ttf");
      }
      @font-face {
        font-family: "GoogleSans_Medium";
        src: url("undefined/excalidraw-assets/GoogleSans_Medium.ttf");
      }
    </style>
  </defs>
  <rect x="0" y="0" width="920" height="660" fill="transparent"></rect><g stroke-linecap="round" transform="translate(10 10) rotate(0 450 320)"><path d="M0 0 L900 0 L900 640 L0 640" stroke="none" stroke-width="0" fill="#F1F3F4"></path><path d="M0 0 C216.73 0, 433.46 0, 900 0 M0 0 C186.7 0, 373.41 0, 900 0 M900 0 C900 222.85, 900 445.69, 900 640 M900 0 C900 157.48, 900 314.95, 900 640 M900 640 C619.54 640, 339.08 640, 0 640 M900 640 C703.54 640, 507.09 640, 0 640 M0 640 C0 437.7, 0 235.4, 0 0 M0 640 C0 445.05, 0 250.1, 0 0" stroke="#FFFFFF" stroke-width="2" fill="none"></path></g><g stroke-opacity="0.8" fill-opacity="0.8" transform="translate(30 39) rotate(0 103.5 11.5)"><text x="0" y="19" font-family="Helvetica, Segoe UI Emoji" font-size="20px" fill="#202124" text-anchor="start" style="white-space: pre;" direction="ltr">Project: Cloud Resume</text></g><g stroke-linecap="round" transform="translate(210 90) rotate(0 325 260)"><path d="M0 0 L650 0 L650 520 L0 520" stroke="none" stroke-width="0" fill="#FDE293"></path><path d="M0 0 C159.98 0, 319.96 0, 650 0 M0 0 C251.91 0, 503.82 0, 650 0 M650 0 C650 185.96, 650 371.93, 650 520 M650 0 C650 119.5, 650 239.01, 650 520 M650 520 C487.66 520, 325.31 520, 0 520 M650 520 C420.95 520, 191.89 520, 0 520 M0 520 C0 344.85, 0 169.69, 0 0 M0 520 C0 409.39, 0 298.78, 0 0" stroke="#F9AB00" stroke-width="2" fill="none"></path></g><g stroke-opacity="0.8" fill-opacity="0.8" transform="translate(226.25 113.5625) rotate(0 97 9.5)"><text x="0" y="15" font-family="Helvetica, Segoe UI Emoji" font-size="16.25px" fill="#202124" text-anchor="start" style="white-space: pre;" direction="ltr">VPC - single region subnet</text></g><g stroke-linecap="round" transform="translate(270 250) rotate(0 120 60.5)"><path d="M12.1 0 L227.9 0 L235.27 1.7 L238.3 4.73 L240 12.1 L240 108.9 L238.3 116.27 L235.27 119.3 L227.9 121 L12.1 121 L4.73 119.3 L1.7 116.27 L0 108.9 L0 12.1 L0.76 6.81 L3.02 3.02 L6.81 0.76 L12.1 0" stroke="none" stroke-width="0" fill="#FFF"></path><path d="M12.1 0 M12.1 0 C74.42 0, 136.75 0, 227.9 0 M12.1 0 C98.33 0, 184.56 0, 227.9 0 M227.9 0 C235.97 0, 240 4.03, 240 12.1 M227.9 0 C235.97 0, 240 4.03, 240 12.1 M240 12.1 C240 42.47, 240 72.83, 240 108.9 M240 12.1 C240 38.95, 240 65.79, 240 108.9 M240 108.9 C240 116.97, 235.97 121, 227.9 121 M240 108.9 C240 116.97, 235.97 121, 227.9 121 M227.9 121 C176.06 121, 124.22 121, 12.1 121 M227.9 121 C180.95 121, 134 121, 12.1 121 M12.1 121 C4.03 121, 0 116.97, 0 108.9 M12.1 121 C4.03 121, 0 116.97, 0 108.9 M0 108.9 C0 78.81, 0 48.71, 0 12.1 M0 108.9 C0 87.6, 0 66.31, 0 12.1 M0 12.1 C0 4.03, 4.03 0, 12.1 0 M0 12.1 C0 4.03, 4.03 0, 12.1 0" stroke="#202124" stroke-width="1" fill="none"></path></g><g transform="translate(286 266) rotate(0 80 16.5)"><text x="0" y="13.5" font-family="GoogleSans_Medium, Segoe UI Emoji" font-size="16px" fill="#1A73E8" text-anchor="start" style="white-space: pre;" direction="ltr">External HTTP Load </text><text x="0" y="30" font-family="GoogleSans_Medium, Segoe UI Emoji" font-size="16px" fill="#1A73E8" text-anchor="start" style="white-space: pre;" direction="ltr">Balancer </text></g><g transform="translate(286 303) rotate(0 41.5 9)"><text x="0" y="14" font-family="GoogleSans_Medium, Segoe UI Emoji" font-size="16px" fill="#202124" text-anchor="start" style="white-space: pre;" direction="ltr">Regional LB</text></g><g stroke-linecap="round"><g transform="translate(286 329) rotate(0 104 0)"><path d="M0 0 C48.74 0, 97.48 0, 208 0 M0 0 C42.38 0, 84.77 0, 208 0" stroke="#202124" stroke-width="1" fill="none"></path></g></g><g transform="translate(286 338) rotate(0 33.5 7)"><text x="0" y="11" font-family="GoogleSans_Regular, Segoe UI Emoji" font-size="12px" fill="#202124" text-anchor="start" style="white-space: pre;" direction="ltr">with SSL cert</text></g><g stroke-linecap="round"><g transform="translate(482.8800001144409 276.8290901184082) rotate(0 -1.0254549980163574 -2.0509088039398193)" fill-rule="evenodd"><path d="M0 0 L-2.05 0 L-2.05 -4.1 L0 -4.1 L0 0" stroke="none" stroke-width="0" fill="#4285f4" fill-rule="evenodd"></path><path d="M0 0 C-0.72 0, -1.45 0, -2.05 0 M0 0 C-0.59 0, -1.18 0, -2.05 0 M-2.05 0 C-2.05 -1.4, -2.05 -2.81, -2.05 -4.1 M-2.05 0 C-2.05 -1.21, -2.05 -2.43, -2.05 -4.1 M-2.05 -4.1 C-1.37 -4.1, -0.69 -4.1, 0 -4.1 M-2.05 -4.1 C-1.39 -4.1, -0.73 -4.1, 0 -4.1 M0 -4.1 C0 -3.14, 0 -2.17, 0 0 M0 -4.1 C0 -2.53, 0 -0.95, 0 0 M0 0 C0 0, 0 0, 0 0 M0 0 C0 0, 0 0, 0 0" stroke="#00000000" stroke-width="1" fill="none"></path></g></g><g stroke-linecap="round"><g transform="translate(473.65090894699097 276.8290901184082) rotate(0 8.203635454177856 2.563636302947998)" fill-rule="evenodd"><path d="M0 0 L0 5.13 L2.05 5.13 L2.05 2.05 L7.18 2.05 L7.18 5.13 L9.23 5.13 L9.23 2.05 L14.36 2.05 L14.36 5.13 L16.41 5.13 L16.41 0 L0 0" stroke="none" stroke-width="0" fill="#669df6" fill-rule="evenodd"></path><path d="M0 0 C0 2.03, 0 4.06, 0 5.13 M0 0 C0 1.3, 0 2.59, 0 5.13 M0 5.13 C0.41 5.13, 0.83 5.13, 2.05 5.13 M0 5.13 C0.8 5.13, 1.61 5.13, 2.05 5.13 M2.05 5.13 C2.05 4.07, 2.05 3.02, 2.05 2.05 M2.05 5.13 C2.05 4.05, 2.05 2.98, 2.05 2.05 M2.05 2.05 C3.22 2.05, 4.39 2.05, 7.18 2.05 M2.05 2.05 C4.09 2.05, 6.12 2.05, 7.18 2.05 M7.18 2.05 C7.18 2.94, 7.18 3.84, 7.18 5.13 M7.18 2.05 C7.18 2.93, 7.18 3.81, 7.18 5.13 M7.18 5.13 C7.69 5.13, 8.19 5.13, 9.23 5.13 M7.18 5.13 C7.65 5.13, 8.13 5.13, 9.23 5.13 M9.23 5.13 C9.23 4.26, 9.23 3.4, 9.23 2.05 M9.23 5.13 C9.23 3.93, 9.23 2.73, 9.23 2.05 M9.23 2.05 C10.81 2.05, 12.39 2.05, 14.36 2.05 M9.23 2.05 C10.4 2.05, 11.57 2.05, 14.36 2.05 M14.36 2.05 C14.36 3.12, 14.36 4.2, 14.36 5.13 M14.36 2.05 C14.36 2.72, 14.36 3.38, 14.36 5.13 M14.36 5.13 C14.77 5.13, 15.19 5.13, 16.41 5.13 M14.36 5.13 C15.17 5.13, 15.98 5.13, 16.41 5.13 M16.41 5.13 C16.41 4.01, 16.41 2.89, 16.41 0 M16.41 5.13 C16.41 3.79, 16.41 2.45, 16.41 0 M16.41 0 C10.41 0, 4.41 0, 0 0 M16.41 0 C10.92 0, 5.44 0, 0 0 M0 0 C0 0, 0 0, 0 0 M0 0 C0 0, 0 0, 0 0" stroke="#00000000" stroke-width="1" fill="none"></path></g></g><g stroke-linecap="round"><g transform="translate(475.70181798934937 267.59999990463257) rotate(0 6.152727365493774 2.563636302947998)" fill-rule="evenodd"><path d="M0 0 L12.31 0 L12.31 5.13 L0 5.13 L0 0" stroke="none" stroke-width="0" fill="#aecbfa" fill-rule="evenodd"></path><path d="M0 0 C3.22 0, 6.43 0, 12.31 0 M0 0 C3.98 0, 7.97 0, 12.31 0 M12.31 0 C12.31 1.45, 12.31 2.89, 12.31 5.13 M12.31 0 C12.31 1.12, 12.31 2.24, 12.31 5.13 M12.31 5.13 C7.84 5.13, 3.37 5.13, 0 5.13 M12.31 5.13 C9.71 5.13, 7.12 5.13, 0 5.13 M0 5.13 C0 3.42, 0 1.71, 0 0 M0 5.13 C0 4.01, 0 2.89, 0 0 M0 0 C0 0, 0 0, 0 0 M0 0 C0 0, 0 0, 0 0" stroke="#00000000" stroke-width="1" fill="none"></path></g></g><g stroke-linecap="round"><g transform="translate(481.8545446395874 267.59999990463257) rotate(0 3.076364040374756 2.563636302947998)" fill-rule="evenodd"><path d="M0 0 L6.15 0 L6.15 5.13 L0 5.13 L0 0" stroke="none" stroke-width="0" fill="#669df6" fill-rule="evenodd"></path><path d="M0 0 C1.85 0, 3.69 0, 6.15 0 M0 0 C1.5 0, 3 0, 6.15 0 M6.15 0 C6.15 1.17, 6.15 2.34, 6.15 5.13 M6.15 0 C6.15 1.81, 6.15 3.61, 6.15 5.13 M6.15 5.13 C3.89 5.13, 1.63 5.13, 0 5.13 M6.15 5.13 C3.75 5.13, 1.35 5.13, 0 5.13 M0 5.13 C0 3.1, 0 1.06, 0 0 M0 5.13 C0 3.76, 0 2.4, 0 0 M0 0 C0 0, 0 0, 0 0 M0 0 C0 0, 0 0, 0 0" stroke="#00000000" stroke-width="1" fill="none"></path></g></g><g stroke-linecap="round"><g transform="translate(485.9563627243042 281.9563627243042) rotate(0 3.076364040374756 3.076364040374756)" fill-rule="evenodd"><path d="M0 0 L6.15 0 L6.15 6.15 L0 6.15 L0 0" stroke="none" stroke-width="0" fill="#aecbfa" fill-rule="evenodd"></path><path d="M0 0 C1.27 0, 2.53 0, 6.15 0 M0 0 C1.42 0, 2.85 0, 6.15 0 M6.15 0 C6.15 1.62, 6.15 3.24, 6.15 6.15 M6.15 0 C6.15 1.79, 6.15 3.58, 6.15 6.15 M6.15 6.15 C3.95 6.15, 1.75 6.15, 0 6.15 M6.15 6.15 C4.49 6.15, 2.83 6.15, 0 6.15 M0 6.15 C0 4.66, 0 3.17, 0 0 M0 6.15 C0 4.09, 0 2.02, 0 0 M0 0 C0 0, 0 0, 0 0 M0 0 C0 0, 0 0, 0 0" stroke="#00000000" stroke-width="1" fill="none"></path></g></g><g stroke-linecap="round"><g transform="translate(471.59999990463257 281.9563627243042) rotate(0 3.0763635635375977 3.076364040374756)" fill-rule="evenodd"><path d="M0 0 L6.15 0 L6.15 6.15 L0 6.15 L0 0" stroke="none" stroke-width="0" fill="#aecbfa" fill-rule="evenodd"></path><path d="M0 0 C2.42 0, 4.84 0, 6.15 0 M0 0 C1.46 0, 2.91 0, 6.15 0 M6.15 0 C6.15 2.16, 6.15 4.32, 6.15 6.15 M6.15 0 C6.15 2.46, 6.15 4.92, 6.15 6.15 M6.15 6.15 C4.7 6.15, 3.24 6.15, 0 6.15 M6.15 6.15 C4.45 6.15, 2.74 6.15, 0 6.15 M0 6.15 C0 4.67, 0 3.18, 0 0 M0 6.15 C0 4.81, 0 3.48, 0 0 M0 0 C0 0, 0 0, 0 0 M0 0 C0 0, 0 0, 0 0" stroke="#00000000" stroke-width="1" fill="none"></path></g></g><g stroke-linecap="round"><g transform="translate(474.6763639450073 281.9563627243042) rotate(0 1.5381815433502197 3.076364040374756)" fill-rule="evenodd"><path d="M0 0 L3.08 0 L3.08 6.15 L0 6.15 L0 0" stroke="none" stroke-width="0" fill="#669df6" fill-rule="evenodd"></path><path d="M0 0 C0.73 0, 1.46 0, 3.08 0 M0 0 C0.67 0, 1.34 0, 3.08 0 M3.08 0 C3.08 2.34, 3.08 4.68, 3.08 6.15 M3.08 0 C3.08 1.61, 3.08 3.23, 3.08 6.15 M3.08 6.15 C2.26 6.15, 1.44 6.15, 0 6.15 M3.08 6.15 C2.36 6.15, 1.65 6.15, 0 6.15 M0 6.15 C0 4.49, 0 2.83, 0 0 M0 6.15 C0 3.77, 0 1.38, 0 0 M0 0 C0 0, 0 0, 0 0 M0 0 C0 0, 0 0, 0 0" stroke="#00000000" stroke-width="1" fill="none"></path></g></g><g stroke-linecap="round"><g transform="translate(478.7781810760498 281.9563627243042) rotate(0 3.076364040374756 3.076364040374756)" fill-rule="evenodd"><path d="M0 0 L6.15 0 L6.15 6.15 L0 6.15 L0 0" stroke="none" stroke-width="0" fill="#aecbfa" fill-rule="evenodd"></path><path d="M0 0 C1.74 0, 3.48 0, 6.15 0 M0 0 C1.82 0, 3.64 0, 6.15 0 M6.15 0 C6.15 1.29, 6.15 2.57, 6.15 6.15 M6.15 0 C6.15 1.9, 6.15 3.81, 6.15 6.15 M6.15 6.15 C3.95 6.15, 1.75 6.15, 0 6.15 M6.15 6.15 C4.26 6.15, 2.38 6.15, 0 6.15 M0 6.15 C0 3.79, 0 1.42, 0 0 M0 6.15 C0 3.82, 0 1.48, 0 0 M0 0 C0 0, 0 0, 0 0 M0 0 C0 0, 0 0, 0 0" stroke="#00000000" stroke-width="1" fill="none"></path></g></g><g stroke-linecap="round"><g transform="translate(481.8545446395874 281.9563627243042) rotate(0 1.538182258605957 3.076364040374756)" fill-rule="evenodd"><path d="M0 0 L3.08 0 L3.08 6.15 L0 6.15 L0 0" stroke="none" stroke-width="0" fill="#669df6" fill-rule="evenodd"></path><path d="M0 0 C0.62 0, 1.23 0, 3.08 0 M0 0 C0.77 0, 1.55 0, 3.08 0 M3.08 0 C3.08 2.14, 3.08 4.28, 3.08 6.15 M3.08 0 C3.08 2.22, 3.08 4.44, 3.08 6.15 M3.08 6.15 C1.91 6.15, 0.74 6.15, 0 6.15 M3.08 6.15 C2.08 6.15, 1.08 6.15, 0 6.15 M0 6.15 C0 4.3, 0 2.44, 0 0 M0 6.15 C0 4.64, 0 3.12, 0 0 M0 0 C0 0, 0 0, 0 0 M0 0 C0 0, 0 0, 0 0" stroke="#00000000" stroke-width="1" fill="none"></path></g></g><g stroke-linecap="round"><g transform="translate(489.03272819519043 281.9563627243042) rotate(0 1.5381813049316406 3.076364040374756)" fill-rule="evenodd"><path d="M0 0 L3.08 0 L3.08 6.15 L0 6.15 L0 0" stroke="none" stroke-width="0" fill="#669df6" fill-rule="evenodd"></path><path d="M0 0 C0.63 0, 1.25 0, 3.08 0 M0 0 C0.87 0, 1.74 0, 3.08 0 M3.08 0 C3.08 1.78, 3.08 3.55, 3.08 6.15 M3.08 0 C3.08 1.74, 3.08 3.49, 3.08 6.15 M3.08 6.15 C2.11 6.15, 1.15 6.15, 0 6.15 M3.08 6.15 C2.06 6.15, 1.05 6.15, 0 6.15 M0 6.15 C0 4.67, 0 3.2, 0 0 M0 6.15 C0 4.54, 0 2.94, 0 0 M0 0 C0 0, 0 0, 0 0 M0 0 C0 0, 0 0, 0 0" stroke="#00000000" stroke-width="1" fill="none"></path></g></g><g stroke-linecap="round" transform="translate(590 430) rotate(0 120 53)"><path d="M10.6 0 L229.4 0 L234.04 0.66 L237.35 2.65 L239.34 5.96 L240 10.6 L240 95.4 L239.34 100.04 L237.35 103.35 L234.04 105.34 L229.4 106 L10.6 106 L5.96 105.34 L2.65 103.35 L0.66 100.04 L0 95.4 L0 10.6 L0.66 5.96 L2.65 2.65 L5.96 0.66 L10.6 0" stroke="none" stroke-width="0" fill="#FFF"></path><path d="M10.6 0 M10.6 0 C55.41 0, 100.22 0, 229.4 0 M10.6 0 C82.34 0, 154.08 0, 229.4 0 M229.4 0 C236.47 0, 240 3.53, 240 10.6 M229.4 0 C236.47 0, 240 3.53, 240 10.6 M240 10.6 C240 38.06, 240 65.51, 240 95.4 M240 10.6 C240 31.39, 240 52.17, 240 95.4 M240 95.4 C240 102.47, 236.47 106, 229.4 106 M240 95.4 C240 102.47, 236.47 106, 229.4 106 M229.4 106 C146.07 106, 62.73 106, 10.6 106 M229.4 106 C146.18 106, 62.96 106, 10.6 106 M10.6 106 C3.53 106, 0 102.47, 0 95.4 M10.6 106 C3.53 106, 0 102.47, 0 95.4 M0 95.4 C0 70.46, 0 45.52, 0 10.6 M0 95.4 C0 66.46, 0 37.53, 0 10.6 M0 10.6 C0 3.53, 3.53 0, 10.6 0 M0 10.6 C0 3.53, 3.53 0, 10.6 0" stroke="#202124" stroke-width="1" fill="none"></path></g><g transform="translate(606 446) rotate(0 80 9)"><text x="0" y="16" font-family="GoogleSans_Medium, Segoe UI Emoji" font-size="16px" fill="#1A73E8" text-anchor="start" style="white-space: pre;" direction="ltr">Cloud Storage</text></g><g transform="translate(606 468) rotate(0 60 9)"><text x="0" y="14" font-family="GoogleSans_Medium, Segoe UI Emoji" font-size="16px" fill="#202124" text-anchor="start" style="white-space: pre;" direction="ltr">HTML / IMG files</text></g><g stroke-linecap="round"><g transform="translate(606 494) rotate(0 104 0)"><path d="M0 0 C42.66 0, 85.32 0, 208 0 M0 0 C52.87 0, 105.73 0, 208 0" stroke="#202124" stroke-width="1" fill="none"></path></g></g><g transform="translate(606 503) rotate(0 77.5 7)"><text x="0" y="11" font-family="GoogleSans_Regular, Segoe UI Emoji" font-size="12px" fill="#202124" text-anchor="start" style="white-space: pre;" direction="ltr">R/O by Cloud Run Service Acct</text></g><g stroke-linecap="round" transform="translate(792 450) rotate(0 10 3.5)"><path d="M0 0 L20 0 L20 7 L0 7" stroke="none" stroke-width="0" fill="#aecbfa"></path><path d="M0 0 C4.16 0, 8.32 0, 20 0 M0 0 C4.94 0, 9.89 0, 20 0 M20 0 C20 2.61, 20 5.23, 20 7 M20 0 C20 2.23, 20 4.47, 20 7 M20 7 C13.44 7, 6.89 7, 0 7 M20 7 C15.36 7, 10.71 7, 0 7 M0 7 C0 5.28, 0 3.57, 0 0 M0 7 C0 5.51, 0 4.03, 0 0" stroke="transparent" stroke-width="1" fill="none"></path></g><g stroke-linecap="round" transform="translate(810 450) rotate(0 1 3.5)"><path d="M0 0 L2 0 L2 7 L0 7" stroke="none" stroke-width="0" fill="#669df6"></path><path d="M0 0 C0.43 0, 0.86 0, 2 0 M0 0 C0.74 0, 1.48 0, 2 0 M2 0 C2 2.07, 2 4.15, 2 7 M2 0 C2 1.8, 2 3.59, 2 7 M2 7 C1.53 7, 1.07 7, 0 7 M2 7 C1.27 7, 0.54 7, 0 7 M0 7 C0 4.55, 0 2.1, 0 0 M0 7 C0 4.9, 0 2.8, 0 0" stroke="transparent" stroke-width="1" fill="none"></path></g><g stroke-linecap="round"><g transform="translate(812 450) rotate(0 -1 3.5)" fill-rule="evenodd"><path d="M0 0 L-2 0 L-2 7 L0 0 L0 0" stroke="none" stroke-width="0" fill="#4285f4" fill-rule="evenodd"></path><path d="M0 0 C-0.75 0, -1.5 0, -2 0 M0 0 C-0.61 0, -1.21 0, -2 0 M-2 0 C-2 2.53, -2 5.06, -2 7 M-2 0 C-2 1.4, -2 2.81, -2 7 M-2 7 C-1.5 5.24, -0.99 3.48, 0 0 M-2 7 C-1.27 4.43, -0.53 1.86, 0 0 M0 0 C0 0, 0 0, 0 0 M0 0 C0 0, 0 0, 0 0 M0 0 C0 0, 0 0, 0 0 M0 0 C0 0, 0 0, 0 0" stroke="#00000000" stroke-width="1" fill="none"></path></g></g><g stroke-linecap="round" transform="translate(792 450) rotate(0 1 3.5)"><path d="M0 0 L2 0 L2 7 L0 7" stroke="none" stroke-width="0" fill="#669df6"></path><path d="M0 0 C0.64 0, 1.28 0, 2 0 M0 0 C0.67 0, 1.34 0, 2 0 M2 0 C2 1.86, 2 3.72, 2 7 M2 0 C2 2.75, 2 5.51, 2 7 M2 7 C1.25 7, 0.49 7, 0 7 M2 7 C1.38 7, 0.76 7, 0 7 M0 7 C0 4.84, 0 2.68, 0 0 M0 7 C0 4.73, 0 2.45, 0 0" stroke="transparent" stroke-width="1" fill="none"></path></g><g stroke-linecap="round" transform="translate(796 453) rotate(0 3 0.5)"><path d="M0 0 L6 0 L6 1 L0 1" stroke="none" stroke-width="0" fill="#fff"></path><path d="M0 0 C1.41 0, 2.82 0, 6 0 M0 0 C1.77 0, 3.54 0, 6 0 M6 0 C6 0.32, 6 0.63, 6 1 M6 0 C6 0.2, 6 0.41, 6 1 M6 1 C4.69 1, 3.38 1, 0 1 M6 1 C4.06 1, 2.11 1, 0 1 M0 1 C0 0.73, 0 0.46, 0 0 M0 1 C0 0.62, 0 0.24, 0 0" stroke="transparent" stroke-width="1" fill="none"></path></g><g stroke-linecap="round" transform="translate(805 452) rotate(0 1.5 1.5)"><path d="M0.3 0 L3 0.3 L2.7 3 L0 2.7 L0.3 0" stroke="none" stroke-width="0" fill="#fff"></path><path d="M0.3 0 M0.3 0 C1.01 0, 1.72 0, 2.7 0 M0.3 0 C1.2 0, 2.09 0, 2.7 0 M2.7 0 C2.9 0, 3 0.1, 3 0.3 M2.7 0 C2.9 0, 3 0.1, 3 0.3 M3 0.3 C3 0.79, 3 1.28, 3 2.7 M3 0.3 C3 1.09, 3 1.87, 3 2.7 M3 2.7 C3 2.9, 2.9 3, 2.7 3 M3 2.7 C3 2.9, 2.9 3, 2.7 3 M2.7 3 C1.92 3, 1.15 3, 0.3 3 M2.7 3 C2.11 3, 1.52 3, 0.3 3 M0.3 3 C0.1 3, 0 2.9, 0 2.7 M0.3 3 C0.1 3, 0 2.9, 0 2.7 M0 2.7 C0 1.79, 0 0.87, 0 0.3 M0 2.7 C0 1.79, 0 0.87, 0 0.3 M0 0.3 C0 0.1, 0.1 0, 0.3 0 M0 0.3 C0 0.1, 0.1 0, 0.3 0" stroke="transparent" stroke-width="1" fill="none"></path></g><g stroke-linecap="round" transform="translate(792 459) rotate(0 10 3.5)"><path d="M0 0 L20 0 L20 7 L0 7" stroke="none" stroke-width="0" fill="#aecbfa"></path><path d="M0 0 C4.86 0, 9.72 0, 20 0 M0 0 C4.9 0, 9.8 0, 20 0 M20 0 C20 1.47, 20 2.94, 20 7 M20 0 C20 2.65, 20 5.3, 20 7 M20 7 C14.83 7, 9.66 7, 0 7 M20 7 C12.34 7, 4.67 7, 0 7 M0 7 C0 4.43, 0 1.86, 0 0 M0 7 C0 4.59, 0 2.19, 0 0" stroke="transparent" stroke-width="1" fill="none"></path></g><g stroke-linecap="round" transform="translate(810 459) rotate(0 1 3.5)"><path d="M0 0 L2 0 L2 7 L0 7" stroke="none" stroke-width="0" fill="#669df6"></path><path d="M0 0 C0.64 0, 1.27 0, 2 0 M0 0 C0.56 0, 1.13 0, 2 0 M2 0 C2 2.42, 2 4.84, 2 7 M2 0 C2 2.56, 2 5.11, 2 7 M2 7 C1.28 7, 0.57 7, 0 7 M2 7 C1.29 7, 0.58 7, 0 7 M0 7 C0 4.97, 0 2.94, 0 0 M0 7 C0 5.55, 0 4.1, 0 0" stroke="transparent" stroke-width="1" fill="none"></path></g><g stroke-linecap="round"><g transform="translate(812 459) rotate(0 -1 3.5)" fill-rule="evenodd"><path d="M0 0 L-2 0 L-2 7 L0 0 L0 0" stroke="none" stroke-width="0" fill="#4285f4" fill-rule="evenodd"></path><path d="M0 0 C-0.69 0, -1.38 0, -2 0 M0 0 C-0.62 0, -1.24 0, -2 0 M-2 0 C-2 2.31, -2 4.63, -2 7 M-2 0 C-2 2.32, -2 4.64, -2 7 M-2 7 C-1.52 5.32, -1.04 3.64, 0 0 M-2 7 C-1.37 4.79, -0.74 2.57, 0 0 M0 0 C0 0, 0 0, 0 0 M0 0 C0 0, 0 0, 0 0 M0 0 C0 0, 0 0, 0 0 M0 0 C0 0, 0 0, 0 0" stroke="#00000000" stroke-width="1" fill="none"></path></g></g><g stroke-linecap="round" transform="translate(792 459) rotate(0 1 3.5)"><path d="M0 0 L2 0 L2 7 L0 7" stroke="none" stroke-width="0" fill="#669df6"></path><path d="M0 0 C0.51 0, 1.02 0, 2 0 M0 0 C0.46 0, 0.91 0, 2 0 M2 0 C2 2.74, 2 5.49, 2 7 M2 0 C2 1.99, 2 3.99, 2 7 M2 7 C1.31 7, 0.61 7, 0 7 M2 7 C1.51 7, 1.03 7, 0 7 M0 7 C0 4.23, 0 1.46, 0 0 M0 7 C0 4.67, 0 2.33, 0 0" stroke="transparent" stroke-width="1" fill="none"></path></g><g stroke-linecap="round" transform="translate(796 462) rotate(0 3 0.5)"><path d="M0 0 L6 0 L6 1 L0 1" stroke="none" stroke-width="0" fill="#fff"></path><path d="M0 0 C1.47 0, 2.94 0, 6 0 M0 0 C1.6 0, 3.21 0, 6 0 M6 0 C6 0.24, 6 0.48, 6 1 M6 0 C6 0.22, 6 0.44, 6 1 M6 1 C4.02 1, 2.04 1, 0 1 M6 1 C4.38 1, 2.76 1, 0 1 M0 1 C0 0.77, 0 0.55, 0 0 M0 1 C0 0.68, 0 0.35, 0 0" stroke="transparent" stroke-width="1" fill="none"></path></g><g stroke-linecap="round" transform="translate(805 461) rotate(0 1.5 1.5)"><path d="M0.3 0 L3 0.3 L2.7 3 L0 2.7 L0.3 0" stroke="none" stroke-width="0" fill="#fff"></path><path d="M0.3 0 M0.3 0 C0.94 0, 1.58 0, 2.7 0 M0.3 0 C0.8 0, 1.31 0, 2.7 0 M2.7 0 C2.9 0, 3 0.1, 3 0.3 M2.7 0 C2.9 0, 3 0.1, 3 0.3 M3 0.3 C3 0.83, 3 1.36, 3 2.7 M3 0.3 C3 0.92, 3 1.54, 3 2.7 M3 2.7 C3 2.9, 2.9 3, 2.7 3 M3 2.7 C3 2.9, 2.9 3, 2.7 3 M2.7 3 C2.05 3, 1.41 3, 0.3 3 M2.7 3 C1.82 3, 0.94 3, 0.3 3 M0.3 3 C0.1 3, 0 2.9, 0 2.7 M0.3 3 C0.1 3, 0 2.9, 0 2.7 M0 2.7 C0 1.93, 0 1.15, 0 0.3 M0 2.7 C0 1.88, 0 1.06, 0 0.3 M0 0.3 C0 0.1, 0.1 0, 0.3 0 M0 0.3 C0 0.1, 0.1 0, 0.3 0" stroke="transparent" stroke-width="1" fill="none"></path></g><g stroke-linecap="round" transform="translate(590 260) rotate(0 120 53)"><path d="M10.6 0 L229.4 0 L234.04 0.66 L237.35 2.65 L239.34 5.96 L240 10.6 L240 95.4 L239.34 100.04 L237.35 103.35 L234.04 105.34 L229.4 106 L10.6 106 L5.96 105.34 L2.65 103.35 L0.66 100.04 L0 95.4 L0 10.6 L0.66 5.96 L2.65 2.65 L5.96 0.66 L10.6 0" stroke="none" stroke-width="0" fill="#FFF"></path><path d="M10.6 0 M10.6 0 C96.35 0, 182.1 0, 229.4 0 M10.6 0 C83.4 0, 156.21 0, 229.4 0 M229.4 0 C236.47 0, 240 3.53, 240 10.6 M229.4 0 C236.47 0, 240 3.53, 240 10.6 M240 10.6 C240 33.04, 240 55.48, 240 95.4 M240 10.6 C240 32.14, 240 53.68, 240 95.4 M240 95.4 C240 102.47, 236.47 106, 229.4 106 M240 95.4 C240 102.47, 236.47 106, 229.4 106 M229.4 106 C175.61 106, 121.83 106, 10.6 106 M229.4 106 C166.42 106, 103.44 106, 10.6 106 M10.6 106 C3.53 106, 0 102.47, 0 95.4 M10.6 106 C3.53 106, 0 102.47, 0 95.4 M0 95.4 C0 73.46, 0 51.52, 0 10.6 M0 95.4 C0 77.37, 0 59.34, 0 10.6 M0 10.6 C0 3.53, 3.53 0, 10.6 0 M0 10.6 C0 3.53, 3.53 0, 10.6 0" stroke="#202124" stroke-width="1" fill="none"></path></g><g transform="translate(606 276) rotate(0 80 9)"><text x="0" y="16" font-family="GoogleSans_Medium, Segoe UI Emoji" font-size="16px" fill="#1A73E8" text-anchor="start" style="white-space: pre;" direction="ltr">Cloud Run</text></g><g transform="translate(606 298) rotate(0 49.5 9)"><text x="0" y="14" font-family="GoogleSans_Medium, Segoe UI Emoji" font-size="16px" fill="#202124" text-anchor="start" style="white-space: pre;" direction="ltr">Flask Web App</text></g><g stroke-linecap="round"><g transform="translate(606 324) rotate(0 104 0)"><path d="M0 0 C63.69 0, 127.38 0, 208 0 M0 0 C70.97 0, 141.95 0, 208 0" stroke="#202124" stroke-width="1" fill="none"></path></g></g><g transform="translate(606 333) rotate(0 32.5 7)"><text x="0" y="11" font-family="GoogleSans_Regular, Segoe UI Emoji" font-size="12px" fill="#202124" text-anchor="start" style="white-space: pre;" direction="ltr">Service Acct </text></g><g stroke-linecap="round"><g transform="translate(798.9066667556763 278.6266667842865) rotate(0 6.233334064483643 4.6866666078567505)" fill-rule="evenodd"><path d="M0 0 L3.11 9.37 L12.47 9.37 L0 0 L0 0" stroke="none" stroke-width="0" fill="#aecbfa" fill-rule="evenodd"></path><path d="M0 0 C1.14 3.42, 2.27 6.84, 3.11 9.37 M0 0 C0.91 2.73, 1.81 5.46, 3.11 9.37 M3.11 9.37 C5.84 9.37, 8.56 9.37, 12.47 9.37 M3.11 9.37 C5.09 9.37, 7.07 9.37, 12.47 9.37 M12.47 9.37 C8.32 6.25, 4.17 3.14, 0 0 M12.47 9.37 C7.93 5.96, 3.39 2.55, 0 0 M0 0 C0 0, 0 0, 0 0 M0 0 C0 0, 0 0, 0 0 M0 0 C0 0, 0 0, 0 0 M0 0 C0 0, 0 0, 0 0" stroke="transparent" stroke-width="1" fill="none"></path></g></g><g stroke-linecap="round"><g transform="translate(811.3733348846436 288) rotate(0 -6.233334064483643 4.686667442321777)" fill-rule="evenodd"><path d="M0 0 L-9.35 0 L-12.47 9.37 L0 0 L0 0" stroke="none" stroke-width="0" fill="#4285f4" fill-rule="evenodd"></path><path d="M0 0 C-3.48 0, -6.96 0, -9.35 0 M0 0 C-2.44 0, -4.88 0, -9.35 0 M-9.35 0 C-10.11 2.29, -10.88 4.59, -12.47 9.37 M-9.35 0 C-10.05 2.11, -10.75 4.21, -12.47 9.37 M-12.47 9.37 C-9.08 6.83, -5.7 4.29, 0 0 M-12.47 9.37 C-8.06 6.06, -3.66 2.75, 0 0 M0 0 C0 0, 0 0, 0 0 M0 0 C0 0, 0 0, 0 0 M0 0 C0 0, 0 0, 0 0 M0 0 C0 0, 0 0, 0 0" stroke="transparent" stroke-width="1" fill="none"></path></g></g><g stroke-linecap="round"><g transform="translate(793.4400000572205 297.37333488464355) rotate(0 2.7333333492279053 -4.686667442321777)" fill-rule="evenodd"><path d="M0 0 L3.13 -1.56 L5.47 -9.37 L2.34 -9.37 L0 0 L0 0" stroke="none" stroke-width="0" fill="#4285f4" fill-rule="evenodd"></path><path d="M0 0 C0.92 -0.46, 1.84 -0.92, 3.13 -1.56 M0 0 C0.91 -0.45, 1.82 -0.91, 3.13 -1.56 M3.13 -1.56 C3.94 -4.29, 4.76 -7.02, 5.47 -9.37 M3.13 -1.56 C3.98 -4.41, 4.83 -7.26, 5.47 -9.37 M5.47 -9.37 C4.6 -9.37, 3.73 -9.37, 2.34 -9.37 M5.47 -9.37 C4.68 -9.37, 3.89 -9.37, 2.34 -9.37 M2.34 -9.37 C1.79 -7.17, 1.24 -4.96, 0 0 M2.34 -9.37 C1.72 -6.91, 1.11 -4.44, 0 0 M0 0 C0 0, 0 0, 0 0 M0 0 C0 0, 0 0, 0 0 M0 0 C0 0, 0 0, 0 0 M0 0 C0 0, 0 0, 0 0" stroke="transparent" stroke-width="1" fill="none"></path></g></g><g stroke-linecap="round"><g transform="translate(793.4400000572205 278.6266667842865) rotate(0 2.7333333492279053 4.6866666078567505)" fill-rule="evenodd"><path d="M0 0 L2.34 9.37 L5.47 9.37 L3.13 1.56 L0 0 L0 0" stroke="none" stroke-width="0" fill="#aecbfa" fill-rule="evenodd"></path><path d="M0 0 C0.5 1.99, 1 3.99, 2.34 9.37 M0 0 C0.48 1.92, 0.96 3.83, 2.34 9.37 M2.34 9.37 C3.45 9.37, 4.55 9.37, 5.47 9.37 M2.34 9.37 C2.98 9.37, 3.62 9.37, 5.47 9.37 M5.47 9.37 C4.87 7.37, 4.27 5.37, 3.13 1.56 M5.47 9.37 C4.59 6.45, 3.72 3.53, 3.13 1.56 M3.13 1.56 C2.19 1.09, 1.26 0.63, 0 0 M3.13 1.56 C2.27 1.13, 1.41 0.7, 0 0 M0 0 C0 0, 0 0, 0 0 M0 0 C0 0, 0 0, 0 0 M0 0 C0 0, 0 0, 0 0 M0 0 C0 0, 0 0, 0 0" stroke="transparent" stroke-width="1" fill="none"></path></g></g><g stroke-linecap="round"><g transform="translate(510 310) rotate(0 40 0)"><path d="M0 0 C28.93 0, 57.86 0, 80 0 M0 0 C24.89 0, 49.78 0, 80 0" stroke="#202124" stroke-width="1" fill="none"></path></g><g transform="translate(510 310) rotate(0 40 0)"><path d="M80 0 L66.41 6.34 L66.41 -6.34 L80 0" stroke="none" stroke-width="0" fill="#202124" fill-rule="evenodd"></path><path d="M80 0 C75.08 2.29, 70.17 4.59, 66.41 6.34 M80 0 C75.77 1.97, 71.54 3.94, 66.41 6.34 M66.41 6.34 C66.41 3.07, 66.41 -0.19, 66.41 -6.34 M66.41 6.34 C66.41 1.55, 66.41 -3.25, 66.41 -6.34 M66.41 -6.34 C71.53 -3.95, 76.65 -1.56, 80 0 M66.41 -6.34 C70.85 -4.27, 75.3 -2.19, 80 0 M80 0 C80 0, 80 0, 80 0 M80 0 C80 0, 80 0, 80 0" stroke="#202124" stroke-width="1" fill="none"></path></g></g><g stroke-linecap="round"><g transform="translate(710 430) rotate(0 0 -30)"><path d="M0 0 C0 -20.85, 0 -41.7, 0 -60 M0 0 C0 -21.37, 0 -42.75, 0 -60" stroke="#202124" stroke-width="1" fill="none"></path></g><g transform="translate(710 430) rotate(0 0 -30)"><path d="M0 -60 L6.34 -46.41 L-6.34 -46.41 L0 -60" stroke="none" stroke-width="0" fill="#202124" fill-rule="evenodd"></path><path d="M0 -60 C2.2 -55.28, 4.41 -50.55, 6.34 -46.41 M0 -60 C2.26 -55.16, 4.52 -50.31, 6.34 -46.41 M6.34 -46.41 C2.75 -46.41, -0.84 -46.41, -6.34 -46.41 M6.34 -46.41 C2.2 -46.41, -1.93 -46.41, -6.34 -46.41 M-6.34 -46.41 C-3.88 -51.69, -1.41 -56.97, 0 -60 M-6.34 -46.41 C-5.05 -49.18, -3.75 -51.96, 0 -60 M0 -60 C0 -60, 0 -60, 0 -60 M0 -60 C0 -60, 0 -60, 0 -60" stroke="#202124" stroke-width="1" fill="none"></path></g></g><g transform="translate(730.4267577193677 394.4169930815697) rotate(0 47.5 11.5)"><text x="0" y="19" font-family="Helvetica, Segoe UI Emoji" font-size="20px" fill="#000000" text-anchor="start" style="white-space: pre;" direction="ltr">Read Only</text></g><g stroke-linecap="round" transform="translate(50 270) rotate(0 41 41)"><path d="M8.2 0 L73.8 0 L77.39 0.51 L79.95 2.05 L81.49 4.61 L82 8.2 L82 73.8 L81.49 77.39 L79.95 79.95 L77.39 81.49 L73.8 82 L8.2 82 L4.61 81.49 L2.05 79.95 L0.51 77.39 L0 73.8 L0 8.2 L0.51 4.61 L2.05 2.05 L4.61 0.51 L8.2 0" stroke="none" stroke-width="0" fill="#FFF"></path><path d="M8.2 0 M8.2 0 C26.92 0, 45.64 0, 73.8 0 M8.2 0 C27.56 0, 46.92 0, 73.8 0 M73.8 0 C79.27 0, 82 2.73, 82 8.2 M73.8 0 C79.27 0, 82 2.73, 82 8.2 M82 8.2 C82 33.34, 82 58.48, 82 73.8 M82 8.2 C82 24.6, 82 40.99, 82 73.8 M82 73.8 C82 79.27, 79.27 82, 73.8 82 M82 73.8 C82 79.27, 79.27 82, 73.8 82 M73.8 82 C48.13 82, 22.45 82, 8.2 82 M73.8 82 C59.5 82, 45.2 82, 8.2 82 M8.2 82 C2.73 82, 0 79.27, 0 73.8 M8.2 82 C2.73 82, 0 79.27, 0 73.8 M0 73.8 C0 51.95, 0 30.11, 0 8.2 M0 73.8 C0 50.77, 0 27.74, 0 8.2 M0 8.2 C0 2.73, 2.73 0, 8.2 0 M0 8.2 C0 2.73, 2.73 0, 8.2 0" stroke="#202124" stroke-width="1" fill="none"></path></g><g transform="translate(66 318) rotate(0 25 9)"><text x="25" y="16" font-family="Helvetica, Segoe UI Emoji" font-size="16px" fill="#202124" text-anchor="middle" style="white-space: pre;" direction="ltr">Device</text></g><g stroke-linecap="round"><g transform="translate(79 286) rotate(0 12 12)" fill-rule="evenodd"><path d="M0 0 L24 0 L24 24 L0 24 L0 0" stroke="none" stroke-width="0" fill="#00000000" fill-rule="evenodd"></path><path d="M0 0 C6.79 0, 13.59 0, 24 0 M0 0 C7.83 0, 15.66 0, 24 0 M24 0 C24 9.33, 24 18.66, 24 24 M24 0 C24 4.9, 24 9.8, 24 24 M24 24 C17.51 24, 11.03 24, 0 24 M24 24 C18.2 24, 12.41 24, 0 24 M0 24 C0 17.42, 0 10.84, 0 0 M0 24 C0 16.77, 0 9.53, 0 0 M0 0 C0 0, 0 0, 0 0 M0 0 C0 0, 0 0, 0 0" stroke="#00000000" stroke-width="1" fill="none"></path></g></g><g stroke-linecap="round"><g transform="translate(83 292) rotate(0 7 6)" fill-rule="evenodd"><path d="M0 0 L18 0 L18 -2 L0 -2 L0 -2 L-0.78 -1.84 L-1.41 -1.41 L-1.84 -0.78 L-2 0 L-2 11 L-4 11 L-4 14 L10 14 L10 11 L0 11 L0 0 L0 0" stroke="none" stroke-width="0" fill="#000" fill-rule="evenodd"></path><path d="M0 0 C6.81 0, 13.61 0, 18 0 M0 0 C6.78 0, 13.56 0, 18 0 M18 0 C18 -0.65, 18 -1.31, 18 -2 M18 0 C18 -0.53, 18 -1.05, 18 -2 M18 -2 C11.75 -2, 5.49 -2, 0 -2 M18 -2 C12.15 -2, 6.3 -2, 0 -2 M0 -2 C0 -2, 0 -2, 0 -2 M0 -2 C0 -2, 0 -2, 0 -2 M0 -2 C-0.18 -1.96, -0.37 -1.93, -0.78 -1.84 M0 -2 C-0.19 -1.96, -0.37 -1.92, -0.78 -1.84 M-0.78 -1.84 C-1.03 -1.67, -1.28 -1.5, -1.41 -1.41 M-0.78 -1.84 C-1.01 -1.69, -1.24 -1.53, -1.41 -1.41 M-1.41 -1.41 C-1.52 -1.25, -1.63 -1.08, -1.84 -0.78 M-1.41 -1.41 C-1.52 -1.25, -1.63 -1.1, -1.84 -0.78 M-1.84 -0.78 C-1.89 -0.55, -1.94 -0.32, -2 0 M-1.84 -0.78 C-1.89 -0.55, -1.93 -0.33, -2 0 M-2 0 C-2 2.28, -2 4.56, -2 11 M-2 0 C-2 2.95, -2 5.89, -2 11 M-2 11 C-2.8 11, -3.59 11, -4 11 M-2 11 C-2.49 11, -2.98 11, -4 11 M-4 11 C-4 12.09, -4 13.18, -4 14 M-4 11 C-4 11.92, -4 12.85, -4 14 M-4 14 C1.03 14, 6.07 14, 10 14 M-4 14 C-0.41 14, 3.18 14, 10 14 M10 14 C10 12.84, 10 11.67, 10 11 M10 14 C10 12.89, 10 11.77, 10 11 M10 11 C7.31 11, 4.62 11, 0 11 M10 11 C7.16 11, 4.33 11, 0 11 M0 11 C0 8.53, 0 6.07, 0 0 M0 11 C0 7.13, 0 3.26, 0 0 M0 0 C0 0, 0 0, 0 0 M0 0 C0 0, 0 0, 0 0 M0 0 C0 0, 0 0, 0 0 M0 0 C0 0, 0 0, 0 0" stroke="#00000000" stroke-width="1" fill="none"></path></g></g><g stroke-linecap="round"><g transform="translate(102 294) rotate(0 -3 6)" fill-rule="evenodd"><path d="M0 0 L-6 0 L-6 0 L-6.71 0.29 L-7 1 L-7 11 L-7 11 L-6.71 11.71 L-6 12 L0 12 L0 12 L0.71 11.71 L1 11 L1 1 L1 1 L0.71 0.29 L0 0 L0 0" stroke="none" stroke-width="0" fill="#000" fill-rule="evenodd"></path><path d="M0 0 C-1.76 0, -3.52 0, -6 0 M0 0 C-1.71 0, -3.42 0, -6 0 M-6 0 C-6 0, -6 0, -6 0 M-6 0 C-6 0, -6 0, -6 0 M-6 0 C-6.26 0.11, -6.51 0.21, -6.71 0.29 M-6 0 C-6.24 0.1, -6.48 0.2, -6.71 0.29 M-6.71 0.29 C-6.8 0.52, -6.89 0.74, -7 1 M-6.71 0.29 C-6.77 0.45, -6.84 0.6, -7 1 M-7 1 C-7 3.71, -7 6.42, -7 11 M-7 1 C-7 4.88, -7 8.75, -7 11 M-7 11 C-7 11, -7 11, -7 11 M-7 11 C-7 11, -7 11, -7 11 M-7 11 C-6.93 11.17, -6.86 11.34, -6.71 11.71 M-7 11 C-6.93 11.17, -6.86 11.34, -6.71 11.71 M-6.71 11.71 C-6.44 11.82, -6.17 11.93, -6 12 M-6.71 11.71 C-6.47 11.81, -6.23 11.91, -6 12 M-6 12 C-4.62 12, -3.24 12, 0 12 M-6 12 C-3.62 12, -1.25 12, 0 12 M0 12 C0 12, 0 12, 0 12 M0 12 C0 12, 0 12, 0 12 M0 12 C0.18 11.93, 0.35 11.85, 0.71 11.71 M0 12 C0.23 11.91, 0.45 11.81, 0.71 11.71 M0.71 11.71 C0.78 11.53, 0.85 11.35, 1 11 M0.71 11.71 C0.8 11.49, 0.89 11.27, 1 11 M1 11 C1 8.5, 1 5.99, 1 1 M1 11 C1 7.3, 1 3.61, 1 1 M1 1 C1 1, 1 1, 1 1 M1 1 C1 1, 1 1, 1 1 M1 1 C0.94 0.85, 0.87 0.69, 0.71 0.29 M1 1 C0.92 0.8, 0.83 0.59, 0.71 0.29 M0.71 0.29 C0.56 0.23, 0.41 0.17, 0 0 M0.71 0.29 C0.5 0.21, 0.3 0.13, 0 0 M0 0 C0 0, 0 0, 0 0 M0 0 C0 0, 0 0, 0 0 M0 0 C0 0, 0 0, 0 0 M0 0 C0 0, 0 0, 0 0" stroke="#00000000" stroke-width="1" fill="none"></path></g></g><g stroke-linecap="round"><g transform="translate(101 303) rotate(0 -2 -3.5)" fill-rule="evenodd"><path d="M0 0 L-4 0 L-4 -7 L0 -7 L0 0" stroke="none" stroke-width="0" fill="#DEDEDE" fill-rule="evenodd"></path><path d="M0 0 C-1.16 0, -2.33 0, -4 0 M0 0 C-1.55 0, -3.1 0, -4 0 M-4 0 C-4 -2.32, -4 -4.65, -4 -7 M-4 0 C-4 -1.84, -4 -3.68, -4 -7 M-4 -7 C-2.82 -7, -1.64 -7, 0 -7 M-4 -7 C-3.09 -7, -2.18 -7, 0 -7 M0 -7 C0 -5.25, 0 -3.5, 0 0 M0 -7 C0 -4.55, 0 -2.09, 0 0 M0 0 C0 0, 0 0, 0 0 M0 0 C0 0, 0 0, 0 0" stroke="#00000000" stroke-width="1" fill="none"></path></g></g><g stroke-linecap="round"><g transform="translate(130 310) rotate(0 70 0)"><path d="M0 0 C30.1 0, 60.2 0, 140 0 M0 0 C39.68 0, 79.35 0, 140 0" stroke="#202124" stroke-width="1" fill="none"></path></g><g transform="translate(130 310) rotate(0 70 0)"><path d="M140 0 L126.41 6.34 L126.41 -6.34 L140 0" stroke="none" stroke-width="0" fill="#202124" fill-rule="evenodd"></path><path d="M140 0 C137.08 1.36, 134.15 2.73, 126.41 6.34 M140 0 C136.15 1.8, 132.29 3.59, 126.41 6.34 M126.41 6.34 C126.41 1.65, 126.41 -3.03, 126.41 -6.34 M126.41 6.34 C126.41 2.45, 126.41 -1.44, 126.41 -6.34 M126.41 -6.34 C131.8 -3.83, 137.19 -1.31, 140 0 M126.41 -6.34 C131.17 -4.12, 135.93 -1.9, 140 0 M140 0 C140 0, 140 0, 140 0 M140 0 C140 0, 140 0, 140 0" stroke="#202124" stroke-width="1" fill="none"></path></g></g></svg>