<?xml version="1.0" standalone="no"?>
<!DOCTYPE svg PUBLIC "-//W3C//DTD SVG 20010904//EN"
 "http://www.w3.org/TR/2001/REC-SVG-20010904/DTD/svg10.dtd">
<svg version="1.0" xmlns="http://www.w3.org/2000/svg"
 width="1316.000000pt" height="1056.000000pt" viewBox="0 0 1316.000000 1056.000000"
 preserveAspectRatio="xMidYMid meet">

<g transform="translate(0.000000,1056.000000) scale(0.100000,-0.100000)"
fill="#000000" stroke="none">
<path d="M5029 7667 c-71 -47 -69 -29 -69 -639 l0 -548 75 0 75 0 0 529 c0
468 2 531 16 545 14 14 70 16 468 16 249 0 487 -3 528 -6 l75 -7 2 -213 2
-212 -38 -35 c-21 -19 -75 -67 -121 -107 -134 -117 -299 -311 -403 -477 l-21
-33 314 0 315 0 31 49 c119 183 345 269 562 212 88 -24 105 -18 120 42 39 153
128 265 263 332 133 66 282 64 423 -5 179 -87 287 -271 270 -460 -4 -41 -8
-88 -9 -105 l-2 -30 82 3 c183 8 338 -79 402 -223 25 -57 34 -56 20 4 -24 106
-96 195 -194 237 l-65 28 0 506 c0 563 1 550 -69 597 l-34 23 -1492 0 -1492 0
-34 -23z"/>
<path d="M4749 6473 c-41 -4 -48 -8 -63 -39 -9 -20 -14 -40 -11 -45 7 -10 244
-13 269 -3 11 4 16 19 16 45 l0 39 -62 0 c-35 0 -72 2 -83 4 -11 1 -41 1 -66
-1z"/>
<path d="M4960 6365 c0 -13 73 -15 622 -13 486 2 622 6 626 16 3 9 -126 12
-622 12 -551 0 -626 -2 -626 -15z"/>
<path d="M4422 6338 c-5 -7 -17 -28 -26 -45 l-17 -33 291 0 290 0 0 39 c0 26
-5 41 -16 45 -9 3 -127 6 -264 6 -186 0 -250 -3 -258 -12z"/>
<path d="M4960 6235 c0 -13 75 -15 615 -15 540 0 615 2 615 15 0 13 -75 15
-615 15 -540 0 -615 -2 -615 -15z"/>
<path d="M4610 6181 c-11 -22 -20 -43 -20 -46 0 -3 84 -5 186 -5 l185 0 -3 43
-3 42 -162 3 -162 2 -21 -39z"/>
<path d="M5178 6122 c-185 -2 -218 -5 -218 -17 0 -13 -34 -15 -235 -15 l-235
0 -20 -40 c-11 -21 -20 -42 -20 -45 0 -3 115 -5 255 -5 l255 0 0 45 0 45 625
0 c549 0 625 2 625 15 0 12 -18 15 -97 15 -54 0 -237 1 -408 3 -170 1 -408 1
-527 -1z"/>
<path d="M4965 5990 c-3 -5 -3 -14 0 -20 4 -7 233 -10 656 -10 548 0 649 2
649 14 0 8 -7 17 -16 20 -28 11 -1282 7 -1289 -4z"/>
<path d="M4732 5915 l-22 -45 125 0 125 0 0 45 0 45 -103 0 -103 0 -22 -45z"/>
<path d="M4965 5860 c-3 -5 -3 -14 0 -20 8 -13 1425 -14 1425 0 0 5 -9 14 -19
20 -27 14 -1397 14 -1406 0z"/>
<path d="M4632 5818 c-5 -7 -17 -28 -26 -45 l-17 -33 186 0 185 0 0 45 0 45
-159 0 c-115 0 -161 -3 -169 -12z"/>
<path d="M6550 5740 l-1585 -5 1 -46 c0 -55 32 -105 80 -125 28 -12 273 -14
1509 -14 1618 0 1520 -4 1565 60 24 33 42 143 24 138 -5 -2 -722 -5 -1594 -8z"/>
<path d="M4855 5455 c-67 -15 -702 -248 -717 -263 -6 -6 -7 -15 -4 -21 10 -16
4832 -16 4842 0 3 6 0 17 -7 23 -22 20 -667 253 -733 265 -95 17 -3302 14
-3381 -4z"/>
<path d="M4036 5048 c-10 -13 -16 -43 -16 -73 0 -30 6 -60 16 -73 l15 -22
2504 0 2504 0 15 22 c23 33 21 130 -2 151 -17 16 -206 17 -2520 17 l-2501 0
-15 -22z"/>
<path d="M1059 4226 c-115 -41 -173 -160 -134 -278 20 -63 55 -104 110 -128
179 -81 366 30 353 208 -8 101 -55 166 -145 198 -48 17 -137 17 -184 0z m150
-178 c30 -54 -18 -110 -81 -95 -43 11 -57 75 -25 115 6 8 26 12 51 10 32 -2
44 -9 55 -30z"/>
<path d="M2209 4227 c-87 -33 -132 -90 -145 -185 -13 -101 47 -200 142 -233
52 -18 160 -16 205 4 160 71 170 316 15 396 -59 30 -161 39 -217 18z m145
-169 c34 -48 4 -108 -54 -108 -58 0 -88 60 -54 108 11 16 25 22 54 22 29 0 43
-6 54 -22z"/>
<path d="M3920 4231 c-105 -32 -160 -106 -160 -214 0 -70 39 -149 90 -183 21
-14 65 -30 102 -36 136 -22 253 48 278 166 12 58 6 113 -16 157 -20 39 -88 94
-133 107 -43 13 -122 14 -161 3z m125 -165 c24 -17 24 -69 0 -96 -38 -42 -115
-11 -115 47 0 14 7 35 17 45 19 21 71 24 98 4z"/>
<path d="M8570 4231 c-105 -32 -160 -106 -160 -216 0 -172 174 -271 350 -198
78 32 120 101 120 198 0 139 -96 227 -242 224 -24 0 -54 -4 -68 -8z m124 -167
c21 -20 20 -73 -1 -96 -20 -22 -70 -23 -95 -1 -22 20 -23 70 -1 95 20 22 76
24 97 2z"/>
<path d="M11740 4231 c-111 -36 -169 -123 -157 -236 13 -128 96 -198 237 -199
87 -1 143 24 191 84 82 101 45 276 -70 332 -49 24 -155 34 -201 19z m138 -184
c23 -48 -7 -97 -59 -97 -57 0 -87 60 -53 108 13 19 24 22 57 20 34 -2 44 -8
55 -31z"/>
<path d="M417 4211 c-43 -28 -59 -58 -60 -110 -1 -51 22 -99 57 -121 11 -8 53
-16 91 -19 105 -9 86 -26 -32 -29 l-103 -3 0 -64 0 -65 148 0 c128 0 151 3
179 20 45 27 65 62 65 113 0 92 -45 133 -157 144 -101 9 -77 23 40 23 l105 0
0 65 0 65 -152 0 c-132 0 -157 -3 -181 -19z"/>
<path d="M1550 4015 l0 -215 188 2 187 3 0 65 0 65 -107 3 -108 3 0 144 0 145
-80 0 -80 0 0 -215z"/>
<path d="M2793 4206 c-69 -32 -105 -87 -111 -165 -6 -85 11 -133 63 -179 57
-50 100 -62 229 -62 l106 0 0 75 0 75 -86 0 c-111 0 -144 16 -144 72 0 45 31
58 137 58 l93 0 0 75 0 75 -117 0 c-104 0 -124 -3 -170 -24z"/>
<path d="M3250 4015 l0 -215 190 0 191 0 -3 68 -3 67 -107 3 -108 3 0 144 0
145 -80 0 -80 0 0 -215z"/>
<path d="M4390 4088 c0 -161 12 -203 68 -250 77 -64 223 -59 293 11 49 49 59
91 59 249 l0 132 -80 0 -80 0 0 -112 c0 -122 -11 -161 -47 -166 -41 -6 -53 31
-53 160 l0 118 -80 0 -80 0 0 -142z"/>
<path d="M4970 4015 l0 -215 138 0 c160 0 200 9 252 56 53 48 74 107 67 185
-7 80 -43 134 -112 166 -45 21 -64 23 -197 23 l-148 0 0 -215z m268 49 c42
-29 23 -96 -33 -110 -51 -13 -60 -3 -63 64 l-3 62 38 0 c21 0 49 -7 61 -16z"/>
<path d="M5590 4015 l0 -215 133 0 c143 0 186 8 238 43 100 68 114 235 25 323
-54 55 -92 64 -258 64 l-138 0 0 -215z m260 47 c26 -21 30 -66 7 -89 -9 -10
-34 -17 -59 -17 l-43 -1 -3 49 c-2 27 -1 55 2 62 8 20 70 17 96 -4z"/>
<path d="M6200 4015 l0 -215 195 0 195 0 0 65 0 65 -110 0 c-67 0 -110 4 -110
10 0 6 43 10 110 10 l110 0 0 65 0 65 -110 0 c-67 0 -110 4 -110 10 0 6 43 10
110 10 l110 0 0 65 0 65 -195 0 -195 0 0 -215z"/>
<path d="M6740 4221 c0 -4 27 -99 60 -211 33 -112 60 -205 60 -206 0 -2 46 -4
103 -4 l102 0 59 203 c33 111 61 208 64 215 3 9 -17 12 -80 12 l-84 0 -28
-116 c-16 -63 -30 -113 -33 -111 -4 4 -28 90 -53 185 l-11 42 -79 0 c-44 0
-80 -4 -80 -9z"/>
<path d="M7340 4015 l0 -215 190 0 190 0 0 65 0 65 -110 0 c-143 0 -145 18 -2
22 l107 3 3 63 3 62 -111 0 c-67 0 -110 4 -110 10 0 6 43 10 110 10 l110 0 0
65 0 65 -190 0 -190 0 0 -215z"/>
<path d="M7900 4015 l0 -215 185 0 185 0 0 70 0 70 -105 0 -105 0 0 145 0 145
-80 0 -80 0 0 -215z"/>
<path d="M9040 4016 l0 -216 84 0 85 0 3 43 3 42 68 6 c109 9 167 68 167 169
0 63 -22 106 -73 144 -25 19 -45 21 -183 24 l-154 3 0 -215z m258 72 c18 -18
14 -56 -7 -68 -11 -5 -33 -10 -50 -10 -30 0 -31 1 -31 45 l0 45 38 0 c21 0 43
-5 50 -12z"/>
<path d="M9610 4015 l0 -215 190 0 190 0 0 65 0 65 -110 0 c-67 0 -110 4 -110
10 0 6 43 10 110 10 l110 0 0 65 0 65 -110 0 c-67 0 -110 4 -110 10 0 6 43 10
110 10 l110 0 0 65 0 65 -190 0 -190 0 0 -215z"/>
<path d="M10162 4018 l3 -213 82 -3 82 -3 3 43 c2 35 7 44 25 46 16 2 29 -8
53 -42 l31 -46 85 0 86 0 -23 38 c-12 20 -31 49 -42 65 -18 27 -18 28 3 62 15
24 21 51 21 87 0 61 -10 94 -41 127 -41 42 -79 51 -230 51 l-140 0 2 -212z
m256 70 c18 -18 14 -56 -7 -68 -11 -5 -33 -10 -50 -10 -30 0 -31 1 -31 45 l0
45 38 0 c21 0 43 -5 50 -12z"/>
<path d="M11144 4205 c-128 -64 -154 -240 -50 -340 54 -52 99 -65 230 -65
l106 0 0 74 0 74 -94 4 c-75 2 -98 7 -115 22 -26 24 -27 60 -1 86 17 17 33 20
115 20 l95 0 0 75 0 75 -118 0 c-106 0 -123 -3 -168 -25z"/>
<path d="M12220 4015 l0 -215 80 0 80 0 0 51 c0 59 12 57 30 -6 l13 -45 54 0
c52 0 55 1 67 33 30 74 30 75 34 20 l3 -53 80 0 79 0 0 215 0 215 -97 0 -98 0
-29 -95 c-16 -52 -32 -95 -36 -95 -4 0 -21 42 -37 93 l-29 92 -97 3 -97 3 0
-216z"/>
<path d="M10750 3860 l0 -60 65 0 65 0 0 60 0 60 -65 0 -65 0 0 -60z"/>
</g>
</svg>
